<svg width="86" height="24" viewBox="0 0 86 24" fill="none" xmlns="http://www.w3.org/2000/svg">
<path d="M15.136 7.04V3.4H0.324V23H4.86V15.86H13.932V12.22H4.86V7.04H15.136ZM23.5647 7.712C21.1567 7.712 18.7207 8.356 17.0687 9.532L18.6367 12.584C19.7287 11.716 21.3807 11.184 22.9767 11.184C25.3287 11.184 26.4487 12.276 26.4487 14.152H22.9767C18.3847 14.152 16.5087 16 16.5087 18.66C16.5087 21.264 18.6087 23.224 22.1367 23.224C24.3487 23.224 25.9167 22.496 26.7287 21.124V23H30.8167V14.404C30.8167 9.84 28.1567 7.712 23.5647 7.712ZM23.2287 20.284C21.6887 20.284 20.7647 19.556 20.7647 18.464C20.7647 17.456 21.4087 16.7 23.4527 16.7H26.4487V18.24C25.9447 19.612 24.6847 20.284 23.2287 20.284ZM43.6739 7.712C41.7979 7.712 40.2579 8.3 39.1379 9.532V2.224H34.7699V23H38.9419V21.264C40.0339 22.58 41.6579 23.224 43.6739 23.224C47.9019 23.224 51.1779 20.2 51.1779 15.468C51.1779 10.736 47.9019 7.712 43.6739 7.712ZM42.9179 19.64C40.7339 19.64 39.0819 18.072 39.0819 15.468C39.0819 12.864 40.7339 11.296 42.9179 11.296C45.1019 11.296 46.7539 12.864 46.7539 15.468C46.7539 18.072 45.1019 19.64 42.9179 19.64ZM56.2859 5.836C57.9099 5.836 59.0019 4.772 59.0019 3.316C59.0019 1.972 57.9099 0.963998 56.2859 0.963998C54.6619 0.963998 53.5699 2.028 53.5699 3.4C53.5699 4.772 54.6619 5.836 56.2859 5.836ZM54.1019 23H58.4699V7.936H54.1019V23ZM69.6918 23.224C74.4798 23.224 77.9518 20.004 77.9518 15.468C77.9518 10.932 74.4798 7.712 69.6918 7.712C64.9038 7.712 61.4038 10.932 61.4038 15.468C61.4038 20.004 64.9038 23.224 69.6918 23.224ZM69.6918 19.64C67.5078 19.64 65.8278 18.072 65.8278 15.468C65.8278 12.864 67.5078 11.296 69.6918 11.296C71.8758 11.296 73.5278 12.864 73.5278 15.468C73.5278 18.072 71.8758 19.64 69.6918 19.64ZM82.3321 23.224C83.8441 23.224 85.0481 22.076 85.0481 20.48C85.0481 18.856 83.8441 17.792 82.3321 17.792C80.8201 17.792 79.6161 18.856 79.6161 20.48C79.6161 22.076 80.8201 23.224 82.3321 23.224Z" fill="black"/>
</svg>
