<svg xmlns="http://www.w3.org/2000/svg" viewBox="0 0 86 24" width="86" height="24">
	<style>
		tspan { white-space:pre }
		.shp0 { fill: #ffffff } 
	</style>
	<path id="Layer" fill-rule="evenodd" class="shp0" d="M4.86 7.04L4.86 12.22L13.93 12.22L13.93 15.86L4.86 15.86L4.86 23L0.32 23L0.32 3.4L15.14 3.4L15.14 7.04L4.86 7.04ZM30.82 14.4L30.82 23L26.73 23L26.73 21.12C25.92 22.5 24.35 23.22 22.14 23.22C18.61 23.22 16.51 21.26 16.51 18.66C16.51 16 18.38 14.15 22.98 14.15L26.45 14.15C26.45 12.28 25.33 11.18 22.98 11.18C21.38 11.18 19.73 11.72 18.64 12.58L17.07 9.53C18.72 8.36 21.16 7.71 23.56 7.71C28.16 7.71 30.82 9.84 30.82 14.4ZM26.45 18.24L26.45 16.7L23.45 16.7C21.41 16.7 20.76 17.46 20.76 18.46C20.76 19.56 21.69 20.28 23.23 20.28C24.68 20.28 25.94 19.61 26.45 18.24ZM51.18 15.47C51.18 20.2 47.9 23.22 43.67 23.22C41.66 23.22 40.03 22.58 38.94 21.26L38.94 23L34.77 23L34.77 2.22L39.14 2.22L39.14 9.53C40.26 8.3 41.8 7.71 43.67 7.71C47.9 7.71 51.18 10.74 51.18 15.47ZM46.75 15.47C46.75 12.86 45.1 11.3 42.92 11.3C40.73 11.3 39.08 12.86 39.08 15.47C39.08 18.07 40.73 19.64 42.92 19.64C45.1 19.64 46.75 18.07 46.75 15.47ZM53.57 3.4C53.57 2.03 54.66 0.96 56.29 0.96C57.91 0.96 59 1.97 59 3.32C59 4.77 57.91 5.84 56.29 5.84C54.66 5.84 53.57 4.77 53.57 3.4ZM54.1 7.94L58.47 7.94L58.47 23L54.1 23L54.1 7.94ZM61.4 15.47C61.4 10.93 64.9 7.71 69.69 7.71C74.48 7.71 77.95 10.93 77.95 15.47C77.95 20 74.48 23.22 69.69 23.22C64.9 23.22 61.4 20 61.4 15.47ZM73.53 15.47C73.53 12.86 71.88 11.3 69.69 11.3C67.51 11.3 65.83 12.86 65.83 15.47C65.83 18.07 67.51 19.64 69.69 19.64C71.88 19.64 73.53 18.07 73.53 15.47ZM79.62 20.48C79.62 18.86 80.82 17.79 82.33 17.79C83.84 17.79 85.05 18.86 85.05 20.48C85.05 22.08 83.84 23.22 82.33 23.22C80.82 23.22 79.62 22.08 79.62 20.48Z" />
</svg>