<?xml version="1.0" standalone="no"?>
<!DOCTYPE svg PUBLIC "-//W3C//DTD SVG 20010904//EN"
 "http://www.w3.org/TR/2001/REC-SVG-20010904/DTD/svg10.dtd">
<svg version="1.0" xmlns="http://www.w3.org/2000/svg"
 width="704.000000pt" height="704.000000pt" viewBox="0 0 704.000000 704.000000"
 preserveAspectRatio="xMidYMid meet">
<metadata>
Created by potrace 1.11, written by Peter Selinger 2001-2013
</metadata>
<g transform="translate(0.000000,704.000000) scale(0.100000,-0.100000)"
fill="#000000" stroke="none">
<path d="M150 6752 l-46 -3 0 -3129 c0 -2904 1 -3130 17 -3135 9 -3 29 -5 45
-5 16 0 37 0 47 0 9 0 24 0 32 0 8 0 21 0 28 -1 16 -1 106 0 132 1 11 1 27 1
35 0 8 0 24 0 35 0 11 1 26 1 33 1 6 -1 19 -1 27 -1 8 0 22 0 30 0 8 0 21 0
28 -1 16 -1 106 0 132 1 11 1 27 1 35 0 8 0 24 0 35 0 11 1 26 1 33 1 6 -1 19
-1 27 -1 8 0 22 0 30 0 8 0 21 0 28 -1 16 -1 106 0 132 1 11 1 27 1 35 0 8 0
24 0 35 0 11 1 26 1 33 1 12 -1 31 -1 57 -1 8 0 40 0 70 0 30 0 62 0 70 0 8 0
25 0 38 0 12 0 46 1 75 2 28 2 52 0 52 -4 0 -4 10 -4 23 1 l22 8 1 1129 c1
621 2 1134 3 1139 1 7 486 10 1439 9 790 0 1442 2 1448 4 9 2 12 159 12 583
l-1 579 -1451 0 -1451 0 0 828 0 827 1643 0 c1452 0 1642 2 1643 15 1 8 2 269
3 579 1 448 -2 565 -12 568 -13 6 -4605 10 -4682 5z"/>
<path d="M6090 2144 c-161 -22 -263 -53 -370 -112 -36 -19 -67 -38 -70 -41 -3
-3 -21 -18 -41 -33 -34 -25 -95 -86 -136 -135 -56 -67 -129 -225 -149 -323
-21 -97 -26 -269 -11 -369 11 -82 62 -224 106 -300 84 -142 204 -255 347 -325
105 -52 142 -64 239 -83 50 -10 268 -10 315 -1 80 16 97 20 140 34 59 20 174
77 214 107 240 175 368 441 360 747 -2 58 -5 116 -9 130 -3 14 -8 41 -11 60
-8 48 -62 187 -91 232 -12 21 -23 40 -23 43 0 14 -133 154 -191 201 -55 45
-221 124 -291 138 -13 3 -34 8 -48 11 -14 3 -38 8 -55 11 -32 5 -199 11 -225
8z"/>
</g>
</svg>
